<?xml version="1.0" standalone="no"?>
<!DOCTYPE svg PUBLIC "-//W3C//DTD SVG 20010904//EN"
 "http://www.w3.org/TR/2001/REC-SVG-20010904/DTD/svg10.dtd">
<svg version="1.0" xmlns="http://www.w3.org/2000/svg"
 width="1272.000000pt" height="1330.000000pt" viewBox="0 0 1272.000000 1330.000000"
 preserveAspectRatio="xMidYMid meet">
<metadata>
Created by potrace 1.16, written by Peter Selinger 2001-2019
</metadata>
<g transform="translate(0.000000,1330.000000) scale(0.100000,-0.100000)"
fill="#000000" stroke="none">
<path d="M3480 13069 c-171 -10 -475 -45 -560 -64 -132 -31 -300 -82 -375
-116 -252 -112 -391 -199 -527 -331 -89 -87 -97 -101 -105 -177 -5 -56 -4 -61
23 -86 27 -25 34 -27 89 -22 90 8 260 66 445 152 228 106 380 172 415 181 17
4 68 19 115 34 109 35 191 53 365 82 121 20 176 23 400 23 224 0 280 -3 405
-23 168 -27 286 -56 459 -112 136 -44 138 -45 352 -149 81 -39 154 -71 164
-71 33 0 83 32 95 60 10 25 8 37 -15 87 -68 149 -152 252 -270 331 -181 120
-360 175 -665 202 -130 11 -607 11 -810 -1z"/>
<path d="M7350 12564 c-194 -9 -517 -56 -635 -92 -127 -39 -312 -130 -420
-208 -69 -49 -274 -241 -275 -257 0 -5 -10 -22 -21 -39 -17 -24 -20 -38 -16
-73 9 -62 57 -155 80 -155 25 0 167 48 194 66 12 8 31 14 42 14 11 0 22 4 26
9 3 6 40 29 83 52 71 39 160 96 172 110 23 26 301 155 370 170 19 4 79 19 133
33 256 65 491 59 797 -20 164 -42 402 -153 526 -245 31 -22 69 -45 85 -49 70
-20 137 36 126 105 -3 18 -26 76 -51 128 -39 81 -60 109 -144 194 -77 79 -113
108 -177 140 -90 46 -187 77 -308 99 -81 14 -436 25 -587 18z"/>
<path d="M3935 11595 c-138 -14 -178 -23 -303 -65 -49 -16 -95 -30 -102 -30
-15 0 -247 -108 -280 -130 -14 -9 -71 -47 -127 -85 -211 -138 -408 -365 -532
-610 -131 -260 -185 -566 -150 -850 6 -49 11 -99 11 -109 -2 -52 78 -285 140
-410 88 -175 231 -364 366 -482 108 -94 316 -227 444 -285 116 -53 328 -119
460 -144 57 -11 145 -15 308 -15 237 0 316 9 465 52 39 11 93 26 120 33 28 6
70 21 95 32 25 12 70 31 100 44 82 35 234 127 330 200 183 139 361 345 451
522 11 20 24 37 29 37 5 0 14 -17 20 -39 5 -21 18 -49 28 -62 11 -13 32 -46
47 -74 120 -209 338 -411 595 -551 60 -33 205 -96 234 -101 17 -3 38 -10 47
-14 9 -5 70 -22 135 -40 115 -30 128 -32 363 -36 295 -6 342 0 581 70 256 76
489 214 681 406 201 201 322 422 391 710 25 108 28 405 4 518 -38 180 -118
367 -225 528 -60 91 -281 311 -373 373 -113 75 -227 139 -293 163 -33 12 -64
25 -70 29 -36 27 -317 94 -460 111 -149 18 -382 6 -530 -26 -66 -15 -138 -30
-161 -35 -56 -12 -264 -99 -349 -146 -215 -119 -406 -292 -532 -481 -30 -46
-59 -83 -63 -83 -5 0 -12 10 -16 23 -31 98 -121 257 -221 388 -208 274 -501
477 -843 588 -179 57 -197 61 -359 77 -170 16 -290 16 -456 -1z m370 -299
c193 -12 450 -88 600 -176 33 -20 72 -42 87 -49 15 -8 69 -49 120 -91 200
-166 338 -348 415 -550 58 -153 74 -235 77 -408 3 -172 -4 -241 -33 -337 -81
-259 -167 -404 -350 -584 -112 -109 -193 -168 -331 -243 -85 -47 -102 -54
-260 -109 -247 -87 -663 -86 -925 2 -110 37 -321 137 -372 177 -21 15 -63 47
-94 70 -83 62 -203 187 -261 272 -29 41 -55 77 -59 80 -12 9 -108 207 -123
257 -8 25 -9 29 -37 158 -29 140 -29 325 1 455 12 52 24 109 27 125 8 52 94
226 161 327 205 311 552 535 932 603 100 18 264 33 315 28 17 -1 66 -4 110 -7z
m3270 -330 c382 -95 666 -279 841 -547 84 -127 144 -264 159 -362 25 -155 28
-222 16 -320 -7 -56 -14 -116 -16 -132 -12 -103 -151 -372 -230 -445 l-27 -25
13 30 c7 17 17 35 21 41 5 7 11 28 13 48 3 20 9 55 15 78 14 63 12 215 -5 305
-17 95 -86 235 -157 321 -174 213 -496 317 -758 246 -60 -16 -60 -16 -175 -70
-67 -31 -96 -53 -175 -133 -103 -103 -139 -161 -184 -293 -57 -166 -56 -320 4
-491 82 -238 314 -441 549 -482 75 -13 110 -24 85 -26 -5 0 -18 -2 -29 -5 -53
-10 -198 -24 -260 -24 -108 0 -352 36 -432 64 -239 82 -420 193 -571 350 -199
207 -298 434 -309 703 -6 148 2 205 48 353 70 221 222 422 439 582 74 55 283
168 310 168 7 0 48 12 89 26 154 54 228 63 451 60 153 -2 223 -7 275 -20z
m245 -1746 c107 -55 104 -217 -5 -270 -70 -34 -138 -20 -187 38 -48 58 -49
136 -1 193 50 59 124 74 193 39z"/>
<path d="M4320 10504 c-90 -17 -272 -94 -348 -146 -53 -36 -152 -132 -200
-194 -67 -87 -137 -254 -150 -359 -9 -76 -9 -232 0 -312 9 -76 71 -232 124
-310 129 -189 319 -321 525 -364 426 -89 827 120 990 515 42 103 54 171 54
316 0 171 -18 253 -82 386 -43 88 -88 151 -164 225 -105 105 -186 152 -364
216 -60 22 -90 26 -215 28 -80 2 -156 1 -170 -1z m448 -1121 c49 -37 67 -71
67 -128 0 -116 -116 -189 -221 -139 -61 29 -97 109 -80 178 8 34 54 86 91 102
39 18 110 12 143 -13z"/>
<path d="M5775 8086 c-107 -16 -115 -18 -230 -66 -150 -64 -292 -165 -495
-354 -63 -58 -302 -274 -530 -478 -228 -205 -435 -392 -460 -418 -25 -25 -232
-212 -460 -416 -228 -204 -437 -393 -465 -419 -27 -26 -239 -216 -469 -423
-231 -207 -438 -394 -460 -416 -23 -21 -232 -210 -466 -419 -234 -208 -441
-396 -460 -417 -19 -20 -123 -115 -230 -210 -294 -261 -308 -276 -316 -327 -5
-34 -12 -47 -33 -58 -49 -25 -208 -192 -255 -269 -155 -247 -192 -500 -110
-745 67 -199 175 -353 323 -461 34 -25 61 -47 61 -50 0 -3 -30 -28 -66 -55
-166 -125 -308 -362 -350 -583 -58 -305 97 -679 355 -859 36 -26 75 -54 86
-64 26 -22 174 -87 250 -109 33 -10 77 -28 98 -40 45 -27 106 -32 582 -49 165
-7 548 -23 850 -36 303 -14 762 -34 1020 -45 259 -11 772 -34 1140 -51 369
-17 830 -37 1025 -45 195 -8 620 -26 943 -41 499 -23 605 -25 705 -15 327 32
460 110 927 546 77 72 160 151 185 176 25 25 290 270 590 545 300 275 568 522
595 549 28 28 291 271 585 541 294 270 560 515 590 544 30 30 271 252 535 494
264 242 552 508 640 592 88 83 202 190 253 236 117 107 135 136 135 213 -1 48
-6 65 -31 99 -40 56 -93 82 -162 81 -30 0 -68 -8 -85 -17 -30 -16 -700 -626
-985 -896 -85 -81 -348 -325 -585 -541 -236 -216 -502 -461 -590 -545 -88 -83
-376 -350 -640 -591 -264 -242 -505 -464 -535 -494 -45 -44 -793 -731 -1076
-988 -77 -70 -213 -143 -302 -161 -84 -17 -177 -15 -1232 33 -547 25 -1458 66
-2025 91 -2524 111 -2804 125 -2838 145 -18 10 -64 20 -104 24 -137 12 -259
67 -355 160 -54 52 -130 158 -134 186 0 3 -8 29 -17 59 -21 68 -22 194 -2 251
8 24 17 54 20 68 4 26 59 110 113 173 72 83 255 179 345 179 17 0 45 11 63 25
l34 26 287 -15 c159 -9 416 -20 573 -26 157 -6 582 -24 945 -41 363 -16 822
-36 1020 -44 648 -27 1030 -44 1715 -75 1388 -62 1513 -65 1680 -41 85 12 203
51 280 93 124 66 318 227 605 502 99 95 396 371 660 612 264 242 530 487 590
545 61 58 301 281 535 494 234 214 499 459 590 545 91 86 359 334 595 550 237
216 502 461 590 545 88 84 223 209 300 279 77 70 150 144 162 164 32 52 31
131 -2 188 -45 76 -173 113 -250 72 -24 -13 -901 -811 -1090 -992 -27 -27
-266 -246 -530 -489 -264 -242 -554 -510 -645 -596 -228 -216 -240 -227 -650
-601 -201 -183 -439 -404 -530 -490 -221 -209 -885 -817 -1016 -929 -49 -42
-182 -105 -252 -120 -81 -17 -174 -15 -1032 24 -437 19 -1256 56 -1820 80
-564 25 -1473 66 -2020 91 -547 25 -1042 45 -1100 45 -93 -1 -111 2 -154 24
-29 15 -66 25 -91 25 -68 0 -192 37 -258 77 -324 195 -369 591 -96 849 74 69
173 122 250 135 34 5 77 16 96 24 30 13 91 12 486 -5 249 -11 659 -29 912 -40
253 -11 714 -31 1025 -45 1242 -55 1735 -76 2175 -95 253 -11 675 -30 938 -42
632 -28 764 -18 952 72 168 80 392 269 945 796 58 56 299 278 535 494 237 216
502 461 590 545 88 83 354 329 590 545 237 216 502 461 590 545 88 83 354 329
590 545 237 216 502 462 590 546 88 84 173 162 188 174 114 90 105 259 -17
323 -35 18 -55 21 -146 19 -58 -1 -420 13 -804 33 -385 19 -747 35 -805 35
-58 0 -466 18 -906 40 -440 22 -937 45 -1105 50 -168 5 -622 26 -1010 45
-1129 57 -1604 71 -1745 51z m930 -395 c1492 -68 1809 -82 2240 -101 248 -11
889 -41 1425 -65 536 -25 1020 -46 1075 -45 127 0 267 -11 263 -21 -2 -4 -95
-92 -208 -196 -113 -103 -226 -208 -250 -233 -25 -25 -288 -268 -585 -540
-297 -272 -565 -519 -595 -549 -30 -30 -294 -274 -586 -541 -292 -268 -580
-534 -640 -592 -60 -58 -302 -282 -539 -498 -236 -216 -470 -431 -519 -478
-108 -102 -150 -133 -238 -178 -89 -45 -172 -64 -288 -64 -52 -1 -495 17 -985
39 -1298 59 -2888 129 -3210 141 -154 6 -588 26 -965 44 -377 19 -689 32 -694
29 -38 -23 34 45 244 232 135 120 304 273 375 340 72 66 299 271 505 455 206
184 397 357 425 384 27 27 232 212 455 411 223 199 431 387 462 417 31 31 243
222 470 426 227 203 436 391 463 417 105 99 601 543 669 598 39 32 80 66 91
75 55 46 164 95 250 112 72 14 212 11 890 -19z"/>
<path d="M7099 7330 c-128 -15 -176 -43 -450 -263 -138 -111 -339 -273 -447
-360 -109 -86 -211 -170 -228 -186 -17 -16 -121 -100 -230 -187 -283 -224
-373 -304 -374 -330 0 -6 -9 -23 -20 -36 -33 -43 -45 -108 -32 -170 21 -90 77
-133 190 -143 153 -14 1534 -66 1797 -68 289 -2 302 -1 351 20 61 26 154 84
174 109 8 9 113 97 233 193 574 461 660 531 743 601 50 41 167 136 261 210
154 122 212 178 198 192 -3 3 8 31 25 63 16 31 30 67 30 79 0 39 -31 114 -58
142 -57 57 -86 63 -358 69 -300 8 -1355 52 -1544 65 -149 11 -166 11 -261 0z
m1024 -415 c291 -13 531 -25 533 -28 3 -3 -68 -63 -157 -134 -90 -70 -195
-155 -233 -189 -39 -33 -171 -141 -294 -240 -123 -98 -268 -215 -323 -260 -55
-45 -111 -87 -125 -94 -21 -12 -125 -10 -682 13 -361 15 -705 28 -764 27 -60
0 -108 2 -108 5 0 10 95 90 285 240 110 86 207 165 215 174 8 9 116 98 238
196 123 99 261 210 305 247 45 37 91 68 102 71 39 7 487 -5 1008 -28z"/>
</g>
</svg>
