<?xml version="1.0" encoding="UTF-8" standalone="no"?>
<!-- Created with Inkscape (http://www.inkscape.org/) -->

<svg
   xmlns:dc="http://purl.org/dc/elements/1.1/"
   xmlns:cc="http://creativecommons.org/ns#"
   xmlns:rdf="http://www.w3.org/1999/02/22-rdf-syntax-ns#"
   xmlns:svg="http://www.w3.org/2000/svg"
   xmlns="http://www.w3.org/2000/svg"
   xmlns:sodipodi="http://sodipodi.sourceforge.net/DTD/sodipodi-0.dtd"
   xmlns:inkscape="http://www.inkscape.org/namespaces/inkscape"
   width="144.08823"
   height="32.48896"
   viewBox="0 0 38.123344 8.5960376"
   version="1.1"
   id="svg11792"
   inkscape:version="0.92.0 r15299"
   sodipodi:docname="playtech.svg">
  <defs
     id="defs11786" />
  <sodipodi:namedview
     id="base"
     pagecolor="#ffffff"
     bordercolor="#666666"
     borderopacity="1.0"
     inkscape:pageopacity="0.0"
     inkscape:pageshadow="2"
     inkscape:zoom="2.9636566"
     inkscape:cx="105.33635"
     inkscape:cy="-4.6360608"
     inkscape:document-units="mm"
     inkscape:current-layer="layer1"
     showgrid="false"
     fit-margin-top="0"
     fit-margin-left="0"
     fit-margin-right="0"
     fit-margin-bottom="0"
     units="px"
     inkscape:window-width="1280"
     inkscape:window-height="744"
     inkscape:window-x="-4"
     inkscape:window-y="-4"
     inkscape:window-maximized="1" />
  <metadata
     id="metadata11789">
    <rdf:RDF>
      <cc:Work
         rdf:about="">
        <dc:format>image/svg+xml</dc:format>
        <dc:type
           rdf:resource="http://purl.org/dc/dcmitype/StillImage" />
        <dc:title></dc:title>
      </cc:Work>
    </rdf:RDF>
  </metadata>
  <g
     inkscape:label="Layer 1"
     inkscape:groupmode="layer"
     id="layer1"
     transform="translate(62.774585,40.805308)">
    <g
       id="g11933"
       style="fill:#161f49;fill-opacity:1"
       transform="translate(0.13229239,-0.13229145)">
      <path
         d="m -54.097528,-37.502981 c -0.006,-0.01446 -0.0095,-0.02858 -0.01552,-0.04339 -0.360892,-0.884766 -1.732139,-1.152877 -3.312936,-0.748594 l -0.259292,-0.161572 c 0.778228,-0.335845 1.553281,-0.511175 2.202744,-0.463198 0.968728,0.07338 1.442509,0.62477 1.385006,1.416756 m -1.405467,1.858433 c -1.01353,1.290461 -2.845152,2.183695 -4.091516,2.091267 -1.244247,-0.09419 -1.432984,-1.215672 -0.4191,-2.506133 0.02011,-0.02646 0.04198,-0.05256 0.06315,-0.07902 l 0.0032,1.617839 c -0.0067,0.411339 0.389467,0.604309 0.674158,0.440972 l 3.726392,-2.272594 c 0.291394,-0.188736 0.260703,-0.611011 -0.01376,-0.773642 l -1.510948,-0.869597 c 0.408517,-0.122766 0.800453,-0.180622 1.148645,-0.154869 1.245305,0.09419 1.43263,1.215319 0.419805,2.50578 m -4.739569,2.785534 c -1.143706,-0.08608 -1.599847,-0.839964 -1.302103,-1.866548 -0.0018,0.171098 0.02505,0.335139 0.08855,0.487539 0.44697,1.098903 2.45357,1.247775 4.481337,0.335492 0.04163,-0.0187 0.0829,-0.03916 0.123825,-0.0575 -1.138414,0.734836 -2.40665,1.174045 -3.391606,1.10102 m 1.317625,-5.744986 2.501547,1.576563 c 0.184856,0.110773 0.207081,0.399345 0.01023,0.527403 l -2.526947,1.540933 c -0.19297,0.111125 -0.46355,-0.02117 -0.458259,-0.30233 l -0.01199,-3.059642 c 0.01094,-0.255411 0.263525,-0.409575 0.485422,-0.282927 m 5.790494,0.567619 c -0.524227,-1.288344 -2.701572,-1.571978 -5.057775,-0.738364 l -1.045633,-0.655108 c -0.325614,-0.185914 -0.697442,0.04057 -0.715433,0.417336 l 7.05e-4,1.063978 c -2.030588,1.21673 -3.208161,2.968272 -2.706863,4.20123 0.581025,1.424164 3.183466,1.619603 5.813072,0.434975 2.630311,-1.183922 4.291894,-3.299178 3.711927,-4.724047"
         style="fill:#161f49;fill-opacity:1;fill-rule:nonzero;stroke:none;stroke-width:0.35277778"
         id="path11125"
         inkscape:connector-curvature="0" />
      <path
         d="m -51.044316,-36.179456 -0.227189,0.836436 c -0.03387,0.127353 -0.05997,0.243417 -0.08079,0.343253 -0.02152,0.105128 -0.03034,0.180269 -0.03034,0.226836 0,0.08961 0.02434,0.158044 0.07408,0.20955 0.05221,0.05115 0.121356,0.0762 0.206375,0.0762 0.13335,0 0.271992,-0.07514 0.415573,-0.225425 0.142875,-0.150636 0.279752,-0.365831 0.413455,-0.648053 0.159809,-0.360891 0.290336,-0.716139 0.390878,-1.071739 0.09701,-0.351366 0.148167,-0.627944 0.148167,-0.824794 0,-0.142875 -0.02963,-0.258233 -0.08714,-0.343958 -0.05786,-0.08678 -0.131939,-0.131234 -0.218723,-0.131234 -0.197908,0 -0.378177,0.128059 -0.54363,0.379942 -0.165453,0.254705 -0.318911,0.644525 -0.460728,1.172986 m -1.427339,-1.9431 c 0.353131,-0.02787 0.687564,-0.06491 1.008592,-0.106186 0.319616,-0.04128 0.627591,-0.08925 0.924983,-0.147461 l -0.250119,0.896761 c 0.249766,-0.346781 0.487891,-0.601486 0.716139,-0.75812 0.224013,-0.161925 0.456847,-0.23883 0.701675,-0.23883 0.333022,0 0.591608,0.105128 0.771172,0.314678 0.182386,0.211666 0.271639,0.512233 0.271639,0.900994 0,0.328083 -0.06103,0.674511 -0.185562,1.036108 -0.125236,0.362303 -0.301272,0.698853 -0.521052,1.011414 -0.258586,0.363361 -0.531284,0.635706 -0.823031,0.815975 -0.293158,0.181681 -0.601839,0.273403 -0.93098,0.273403 -0.135114,0 -0.261056,-0.0187 -0.380648,-0.05927 -0.117122,-0.04198 -0.223308,-0.09878 -0.319616,-0.175683 l -0.256117,0.972256 c -0.01764,0.05821 -0.0314,0.12065 -0.0381,0.18168 -0.0099,0.05962 -0.01235,0.119945 -0.01235,0.18027 0,0.116769 0.03351,0.201436 0.102658,0.248708 0.0695,0.04692 0.209903,0.07585 0.420864,0.08925 v 0.227189 h -2.3876 v -0.237067 c 0.0081,0 0.01976,-0.0011 0.03492,-0.0039 0.01588,-0.0039 0.02822,-0.0053 0.03422,-0.0053 0.148519,0 0.258938,-0.0381 0.333022,-0.116064 0.07479,-0.07761 0.150636,-0.279753 0.230716,-0.609247 l 0.950384,-3.871031 c 0.01658,-0.06174 0.02928,-0.124883 0.03951,-0.184855 0.0095,-0.05786 0.01517,-0.105481 0.01517,-0.137231 0,-0.106539 -0.0321,-0.1778 -0.09419,-0.216958 -0.06421,-0.04375 -0.183092,-0.0635 -0.356306,-0.0635 z"
         style="fill:#161f49;fill-opacity:1;fill-rule:nonzero;stroke:none;stroke-width:0.35277778"
         id="path11129"
         inkscape:connector-curvature="0" />
      <path
         d="m -48.090719,-40.257797 c 0.357011,-0.02893 0.697794,-0.06773 1.029053,-0.115006 0.328789,-0.04692 0.64135,-0.101247 0.934508,-0.167922 l -1.311275,5.19042 c -0.0085,0.02857 -0.01834,0.06279 -0.02963,0.10795 -0.01729,0.06703 -0.02364,0.110066 -0.02364,0.132997 0,0.06103 0.01129,0.109714 0.03528,0.143228 0.0254,0.03493 0.06103,0.05186 0.107245,0.05186 0.04727,0 0.100542,-0.03246 0.161925,-0.09913 0.06068,-0.06526 0.178505,-0.237066 0.353836,-0.515408 l 0.209197,0.15875 c -0.263172,0.440619 -0.516819,0.760942 -0.755297,0.959203 -0.238478,0.197908 -0.486128,0.296333 -0.745067,0.296333 -0.228247,0 -0.406752,-0.06315 -0.529872,-0.191911 -0.12453,-0.128764 -0.185561,-0.314325 -0.185561,-0.553861 0,-0.117828 0.06385,-0.430389 0.189794,-0.936978 l 0.0127,-0.05115 0.870303,-3.3782 c 0.0078,-0.03104 0.0187,-0.07726 0.03281,-0.137936 0.05539,-0.22225 0.07973,-0.365477 0.07973,-0.427214 0,-0.08502 -0.02858,-0.146755 -0.08784,-0.18803 -0.05786,-0.03986 -0.148167,-0.06138 -0.273403,-0.06138 h -0.07479 z"
         style="fill:#161f49;fill-opacity:1;fill-rule:nonzero;stroke:none;stroke-width:0.35277778"
         id="path11133"
         inkscape:connector-curvature="0" />
      <path
         d="m -43.985524,-37.569762 c 0,-0.124178 -0.02611,-0.222603 -0.08043,-0.296686 -0.05433,-0.07338 -0.124531,-0.109714 -0.212373,-0.109714 -0.124883,0 -0.244827,0.06068 -0.361244,0.18415 -0.116417,0.124883 -0.249767,0.330906 -0.402519,0.619478 -0.178506,0.343958 -0.318559,0.679097 -0.4191,1.00965 -0.103364,0.333375 -0.154517,0.615244 -0.154517,0.849136 0,0.142169 0.02857,0.251883 0.08502,0.335139 0.0568,0.07832 0.134761,0.11818 0.229659,0.11818 0.140758,0 0.284339,-0.08361 0.433211,-0.254705 0.148519,-0.170039 0.288925,-0.409928 0.421922,-0.718609 0.1397,-0.343958 0.249767,-0.67945 0.334081,-0.999066 0.08361,-0.322086 0.126294,-0.567267 0.126294,-0.736953 m 1.581856,-0.761647 -0.699559,2.567516 v 0.0092 c -0.106539,0.395464 -0.160161,0.625475 -0.160161,0.691444 0,0.06103 0.01058,0.109714 0.03528,0.147814 0.02293,0.03845 0.05292,0.05503 0.09313,0.05503 0.113242,0 0.261056,-0.136172 0.438503,-0.409575 0.05362,-0.07796 0.0949,-0.1397 0.123119,-0.182739 l 0.2032,0.160162 c -0.228247,0.400755 -0.455788,0.697088 -0.687916,0.885824 -0.232128,0.189442 -0.482953,0.282928 -0.750006,0.282928 -0.222603,0 -0.392641,-0.04939 -0.507294,-0.147108 -0.118181,-0.101247 -0.175684,-0.245181 -0.175684,-0.437445 0,-0.05715 0.0042,-0.13088 0.01658,-0.217311 0.01023,-0.08784 0.02858,-0.201436 0.05292,-0.340077 -0.211314,0.386291 -0.441678,0.673805 -0.690386,0.859366 -0.24765,0.189089 -0.524581,0.282575 -0.829734,0.282575 -0.315383,0 -0.563386,-0.09807 -0.745772,-0.294922 -0.183092,-0.198967 -0.274461,-0.468842 -0.274461,-0.812447 0,-0.395464 0.08643,-0.811742 0.263878,-1.252008 0.174978,-0.434623 0.41028,-0.823737 0.706966,-1.157817 0.233892,-0.268464 0.475898,-0.474839 0.727781,-0.619478 0.253647,-0.144639 0.496005,-0.2159 0.729192,-0.2159 0.222955,0 0.395816,0.05433 0.52458,0.161925 0.128411,0.109361 0.212725,0.27552 0.253295,0.496711 l 0.128763,-0.513644 z"
         style="fill:#161f49;fill-opacity:1;fill-rule:nonzero;stroke:none;stroke-width:0.35277778"
         id="path11137"
         inkscape:connector-curvature="0" />
      <path
         d="m -42.811329,-37.976242 v -0.237067 c 0.340783,-0.0381 0.6858,-0.08537 1.037519,-0.138289 0.348898,-0.05327 0.539045,-0.07902 0.565503,-0.07902 0.140406,0 0.324203,0.617714 0.546806,1.855259 0.09031,0.492477 0.164394,0.889352 0.222603,1.186391 0.265288,-0.537986 0.446616,-0.930628 0.544688,-1.176161 0.09772,-0.244122 0.145698,-0.425803 0.145698,-0.541867 0,-0.08996 -0.08185,-0.199319 -0.244828,-0.32385 -0.162631,-0.125941 -0.245886,-0.27058 -0.245886,-0.430388 0,-0.185209 0.05644,-0.334434 0.17145,-0.447675 0.112536,-0.111478 0.263172,-0.16757 0.451202,-0.16757 0.185914,0 0.33267,0.05609 0.437798,0.16757 0.103364,0.113241 0.156986,0.271638 0.156986,0.473075 0,0.253294 -0.121709,0.661458 -0.362656,1.222727 -0.241653,0.560211 -0.571853,1.190978 -0.989894,1.896534 -0.473075,0.804333 -0.904875,1.38818 -1.292225,1.757891 -0.387703,0.369359 -0.760942,0.553156 -1.119717,0.553156 -0.238478,0 -0.425097,-0.05292 -0.561622,-0.159103 -0.135819,-0.106892 -0.204258,-0.252942 -0.204258,-0.439208 0,-0.169334 0.05821,-0.306564 0.177094,-0.418042 0.117475,-0.110419 0.266347,-0.1651 0.447675,-0.1651 0.141817,0 0.294217,0.0568 0.456847,0.168628 0.161925,0.113594 0.272345,0.167216 0.325967,0.167216 0.09772,0 0.207786,-0.08184 0.332317,-0.24518 0.128058,-0.165453 0.191911,-0.320675 0.191911,-0.471311 0,-0.109714 -0.01023,-0.249767 -0.02963,-0.417689 -0.01905,-0.169686 -0.04974,-0.376767 -0.08925,-0.622653 -0.08255,-0.527403 -0.166159,-1.008944 -0.249414,-1.441097 -0.08537,-0.431447 -0.16122,-0.772231 -0.229306,-1.021292 -0.05997,-0.213783 -0.120297,-0.352777 -0.181328,-0.418394 -0.06103,-0.06491 -0.159808,-0.09701 -0.300919,-0.09701 h -0.01094 c -0.04092,0.0056 -0.07232,0.0095 -0.100189,0.0095"
         style="fill:#161f49;fill-opacity:1;fill-rule:nonzero;stroke:none;stroke-width:0.35277778"
         id="path11141"
         inkscape:connector-curvature="0" />
      <path
         d="m -37.355806,-35.284688 c -0.263525,0.371475 -0.522464,0.656519 -0.7747,0.853369 -0.249767,0.198967 -0.478014,0.297745 -0.685447,0.297745 -0.167217,0 -0.297745,-0.05539 -0.394053,-0.162278 -0.09631,-0.109361 -0.145344,-0.255764 -0.145344,-0.439208 0,-0.06456 0.0067,-0.136172 0.0194,-0.216606 0.01164,-0.08114 0.03034,-0.171097 0.05539,-0.265994 l 0.752123,-2.940756 h -0.791986 l 0.07373,-0.252941 c 0.340431,-0.07444 0.64135,-0.236714 0.90417,-0.487892 0.261408,-0.252236 0.498827,-0.600428 0.707319,-1.046339 h 0.270228 l -0.353484,1.476375 h 0.723548 l -0.07303,0.310797 h -0.745773 l -0.722136,2.840567 c -0.01658,0.06456 -0.02928,0.121003 -0.0381,0.174272 -0.006,0.05186 -0.01164,0.09948 -0.01164,0.1397 0,0.09455 0.02046,0.165806 0.06315,0.216606 0.03916,0.05045 0.09878,0.07479 0.171097,0.07479 0.09455,0 0.20567,-0.05503 0.337256,-0.170392 0.131233,-0.112889 0.297391,-0.29845 0.496711,-0.554214 z"
         style="fill:#161f49;fill-opacity:1;fill-rule:nonzero;stroke:none;stroke-width:0.35277778"
         id="path11145"
         inkscape:connector-curvature="0" />
      <path
         d="m -36.617116,-36.252799 c 0.582083,-0.02787 1.072797,-0.187325 1.466144,-0.474839 0.396523,-0.2921 0.591962,-0.61983 0.591962,-0.991658 0,-0.124531 -0.0314,-0.218017 -0.09454,-0.280811 -0.06103,-0.06032 -0.155928,-0.09137 -0.28328,-0.09137 -0.352778,0 -0.680509,0.159809 -0.98037,0.485775 -0.300214,0.328084 -0.532694,0.778228 -0.699911,1.352903 m -0.06879,0.311503 c -0.02716,0.10548 -0.04445,0.207433 -0.0568,0.304447 -0.01446,0.09419 -0.01834,0.182739 -0.01834,0.262819 0,0.246239 0.05962,0.43427 0.182386,0.563739 0.12065,0.129823 0.298803,0.225778 0.53093,0.225778 0.2286,0 0.49142,-0.108655 0.780698,-0.265642 0.292805,-0.155927 0.621947,-0.392288 0.984602,-0.708025 l 0.191559,0.289984 c -0.432859,0.390172 -0.840317,0.678744 -1.223434,0.862894 -0.381705,0.188031 -0.75565,0.279753 -1.122891,0.279753 -0.359481,0 -0.641703,-0.109008 -0.839611,-0.323144 -0.199673,-0.216959 -0.298803,-0.5207 -0.298803,-0.91687 0,-0.37853 0.07761,-0.763764 0.232833,-1.153936 0.155222,-0.388761 0.367595,-0.737658 0.635706,-1.039636 0.259997,-0.289631 0.5461,-0.509411 0.854075,-0.663222 0.312561,-0.152048 0.631119,-0.230717 0.959202,-0.230717 0.302331,0 0.539045,0.07091 0.714023,0.211314 0.174625,0.139347 0.262819,0.331611 0.262819,0.576439 0,0.440619 -0.256822,0.823383 -0.765528,1.145116 -0.509764,0.321028 -1.177572,0.512587 -2.003425,0.578909"
         style="fill:#161f49;fill-opacity:1;fill-rule:nonzero;stroke:none;stroke-width:0.35277778"
         id="path11149"
         inkscape:connector-curvature="0" />
      <path
         d="m -30.998425,-35.880874 -0.01129,0.556683 c -0.274108,0.401109 -0.571147,0.700264 -0.894644,0.899936 -0.323498,0.197909 -0.676628,0.296334 -1.059039,0.296334 -0.418747,0 -0.760942,-0.140053 -1.023761,-0.423686 -0.261761,-0.279048 -0.392289,-0.650875 -0.392289,-1.112661 0,-0.339373 0.07408,-0.685448 0.22225,-1.038578 0.146403,-0.354542 0.352425,-0.66922 0.615244,-0.948972 0.240242,-0.252942 0.509764,-0.450498 0.808567,-0.585964 0.29598,-0.137936 0.598664,-0.208845 0.910519,-0.208845 0.327025,0 0.58667,0.0762 0.780345,0.225425 0.193322,0.149578 0.290336,0.348192 0.290336,0.598664 0,0.14852 -0.04939,0.277283 -0.150989,0.383117 -0.100189,0.106891 -0.218722,0.159103 -0.357364,0.159103 -0.113242,0 -0.204611,-0.03563 -0.274814,-0.110773 -0.06985,-0.07408 -0.104775,-0.170039 -0.104775,-0.289983 0,-0.08361 0.02716,-0.179211 0.08467,-0.290689 0.05539,-0.109714 0.0822,-0.178153 0.0822,-0.205669 0,-0.05151 -0.02716,-0.09278 -0.08537,-0.124884 -0.05786,-0.0321 -0.134056,-0.04798 -0.233186,-0.04798 -0.201436,0 -0.405342,0.06138 -0.615597,0.188383 -0.208492,0.129117 -0.390878,0.302683 -0.547512,0.523169 -0.190852,0.267406 -0.338313,0.552098 -0.441677,0.852664 -0.101953,0.299861 -0.1524,0.591256 -0.1524,0.879828 0,0.325967 0.08184,0.586669 0.247297,0.776817 0.167217,0.1905 0.391583,0.319616 0.675569,0.319616 0.224014,0 0.444148,-0.104775 0.6604,-0.244475 0.217664,-0.142169 0.57785,-0.425097 0.967317,-1.026583"
         style="fill:#161f49;fill-opacity:1;fill-rule:nonzero;stroke:none;stroke-width:0.35277778"
         id="path11153"
         inkscape:connector-curvature="0" />
      <path
         d="m -31.491926,-34.123088 1.481314,-5.366808 c 0.0088,-0.03281 0.01411,-0.06597 0.01799,-0.101953 0.0056,-0.03281 0.0071,-0.06703 0.0071,-0.09454 0,-0.0956 -0.02434,-0.16122 -0.07055,-0.198262 -0.04692,-0.03281 -0.181328,-0.0508 -0.400756,-0.0508 h -0.337256 l 0.05221,-0.244827 c 0.271991,-0.01094 0.525991,-0.04304 0.762705,-0.08925 0.234245,-0.04939 0.458611,-0.112889 0.666397,-0.195792 h 0.267759 l -1.025173,3.706989 c 0.524934,-0.535164 1.008592,-0.949325 1.448506,-1.247775 0.438855,-0.293158 0.789517,-0.44203 1.050925,-0.44203 0.137936,0 0.237772,0.03281 0.304094,0.09842 0.06456,0.06773 0.09948,0.170391 0.09948,0.308327 0,0.04304 -0.0071,0.09419 -0.01976,0.155928 -0.01164,0.06385 -0.02752,0.133703 -0.04657,0.208845 l -0.748241,2.525183 c -0.01305,0.04833 -0.0254,0.103011 -0.03492,0.161572 -0.01023,0.05644 -0.01552,0.115006 -0.01552,0.17145 0,0.03246 0.01552,0.06068 0.04233,0.08678 0.02681,0.0247 0.05962,0.06879 0.0949,0.06879 0.07303,0 0.175683,-0.08043 0.303742,-0.179917 0.129116,-0.09948 0.264583,-0.235655 0.407811,-0.407811 l 0.1524,0.130881 c -0.257528,0.319616 -0.505883,0.565855 -0.744008,0.733425 -0.239184,0.169333 -0.460023,0.254705 -0.661106,0.254705 -0.131586,0 -0.235303,-0.03245 -0.31115,-0.09596 -0.07726,-0.06491 -0.113947,-0.150989 -0.113947,-0.263525 0,-0.03951 0.0032,-0.0822 0.01199,-0.127706 0.0078,-0.04516 0.02258,-0.09419 0.04057,-0.148166 l 0.768702,-2.611614 c 0.01411,-0.05715 0.02328,-0.100895 0.02822,-0.130528 0.0046,-0.02858 0.006,-0.05715 0.006,-0.08114 0,-0.06668 -0.01799,-0.117475 -0.0568,-0.153458 -0.03669,-0.03316 -0.09031,-0.05045 -0.160867,-0.05045 -0.109361,0 -0.270933,0.06809 -0.483658,0.206375 -0.214489,0.137936 -0.458964,0.335138 -0.740481,0.590197 -0.25153,0.225778 -0.437444,0.418041 -0.554214,0.577144 -0.116769,0.159456 -0.202141,0.324556 -0.255058,0.496006 l -0.509764,1.801283 c -0.05821,-0.0088 -0.26423,-0.01552 -0.324203,-0.0194 -0.05962,-0.0042 0.02752,-0.0042 -0.03422,-0.0042 -0.06244,0 -0.124883,0 -0.185208,0.0042 -0.05856,0.0039 -0.119239,0.01058 -0.181681,0.0194"
         style="fill:#161f49;fill-opacity:1;fill-rule:nonzero;stroke:none;stroke-width:0.35277778"
         id="path11157"
         inkscape:connector-curvature="0" />
      <path
         d="m -40.289824,-32.646819 v 0.06985 c -3.53e-4,0.03598 0.0035,0.06879 0.01341,0.100189 0.02117,0.08467 0.08996,0.127 0.207433,0.127 0.04374,0 0.08326,-0.006 0.118886,-0.01834 0.08008,-0.02434 0.12065,-0.08467 0.123119,-0.178858 -7.05e-4,-0.06456 -0.02681,-0.115005 -0.07902,-0.150283 -0.03739,-0.02434 -0.08149,-0.04798 -0.132644,-0.07232 l -0.15487,-0.0702 c -0.06138,-0.02716 -0.112536,-0.05503 -0.153105,-0.08396 -0.08537,-0.05962 -0.128411,-0.144638 -0.128411,-0.256116 0.0011,-0.122061 0.04939,-0.208139 0.14358,-0.259292 0.07056,-0.03845 0.166511,-0.05821 0.289631,-0.05927 0.149578,0 0.25788,0.02822 0.32385,0.08502 0.05256,0.04551 0.07902,0.135114 0.07902,0.268464 v 0.02505 h -0.212725 v -0.02999 l -0.0042,-0.06491 c -0.01305,-0.09737 -0.0762,-0.144992 -0.189089,-0.142522 -0.143228,0 -0.215547,0.0575 -0.217311,0.172155 0,0.07303 0.04516,0.132645 0.134408,0.178506 0.05609,0.02928 0.118533,0.05786 0.188383,0.08749 0.07056,0.02893 0.127706,0.0568 0.17145,0.08325 0.102659,0.0628 0.154164,0.156633 0.154164,0.283281 -0.0021,0.228247 -0.153458,0.343252 -0.45473,0.343252 -0.129117,0.0018 -0.2286,-0.02011 -0.298098,-0.06385 -0.08149,-0.05221 -0.125588,-0.125589 -0.132644,-0.222956 l -0.0028,-0.100542 v -0.05009 z"
         style="fill:#161f49;fill-opacity:1;fill-rule:nonzero;stroke:none;stroke-width:0.35277778"
         id="path11161"
         inkscape:connector-curvature="0" />
      <path
         d="m -39.471705,-33.075867 c 7.06e-4,-0.103011 0.01058,-0.178153 0.02858,-0.226131 0.02893,-0.07549 0.09137,-0.129822 0.188031,-0.161219 0.06985,-0.02364 0.144991,-0.03528 0.225777,-0.03528 0.07937,0 0.154517,0.01164 0.225425,0.03528 0.09525,0.0314 0.157339,0.08573 0.18662,0.161219 0.01799,0.04692 0.02822,0.12312 0.02963,0.226131 v 0.420158 c 0,0.0755 -0.0042,0.141464 -0.0127,0.196145 -0.02364,0.165453 -0.164747,0.249414 -0.42298,0.250119 -0.187325,0 -0.312914,-0.03845 -0.376767,-0.116416 -0.04868,-0.05821 -0.07267,-0.168628 -0.07161,-0.329848 z m 0.213078,0.418747 c 7.05e-4,0.105481 0.0085,0.174625 0.02293,0.205317 0.01446,0.03104 0.04233,0.05644 0.08185,0.07479 0.04057,0.01799 0.08184,0.02716 0.12453,0.02716 0.03845,0 0.07585,-0.0071 0.111125,-0.02293 0.06773,-0.02681 0.104775,-0.07479 0.111478,-0.14358 0.0035,-0.03916 0.0053,-0.08572 0.006,-0.140759 v -0.419805 c 0.0014,-0.09102 -0.0092,-0.155223 -0.03034,-0.191911 -0.03351,-0.05927 -0.100188,-0.08925 -0.198261,-0.08855 -0.03845,0 -0.07408,0.0056 -0.107597,0.0187 -0.0695,0.02364 -0.108303,0.07267 -0.116417,0.145697 -0.0046,0.03316 -0.006,0.07197 -0.0053,0.116064 z"
         style="fill:#161f49;fill-opacity:1;fill-rule:nonzero;stroke:none;stroke-width:0.35277778"
         id="path11165"
         inkscape:connector-curvature="0" />
      <path
         d="m -38.39501,-33.480495 h 0.212372 v 0.836436 l 0.0021,0.11042 c 0.0074,0.121708 0.07832,0.183091 0.212372,0.183797 0.134408,0 0.208139,-0.05715 0.220839,-0.172156 0.0049,-0.04022 0.0074,-0.08079 0.0081,-0.122061 v -0.836436 h 0.212725 v 0.849842 c -7.06e-4,0.0695 -0.0032,0.123119 -0.0074,0.161572 -0.0067,0.05821 -0.02999,0.106892 -0.07091,0.14605 -0.07761,0.07585 -0.196497,0.112889 -0.356658,0.113594 -0.166158,-7.05e-4 -0.286103,-0.03739 -0.359128,-0.111477 -0.04092,-0.04233 -0.06385,-0.09137 -0.06914,-0.148167 -0.0035,-0.03387 -0.0053,-0.08714 -0.0053,-0.161572 z"
         style="fill:#161f49;fill-opacity:1;fill-rule:nonzero;stroke:none;stroke-width:0.35277778"
         id="path11169"
         inkscape:connector-curvature="0" />
      <path
         d="m -36.972028,-33.480495 h 0.127 c 0.04904,0 0.09419,0.0046 0.135114,0.01129 0.156986,0.02505 0.236361,0.124883 0.23883,0.300919 0,0.09243 -0.02081,0.161573 -0.06209,0.210609 -0.04022,0.04551 -0.118887,0.0762 -0.234245,0.09278 v -7.05e-4 c 0.07197,0.0071 0.123825,0.01799 0.155575,0.03281 0.04551,0.02258 0.07408,0.05927 0.08537,0.109008 0.0074,0.03281 0.01164,0.07197 0.01376,0.116064 l 0.0092,0.147461 c 0.0035,0.05609 0.0095,0.100189 0.01764,0.132292 0.0046,0.02293 0.01482,0.05644 0.0314,0.100542 h -0.221544 l -0.02152,-0.08008 c -0.006,-0.02258 -0.0099,-0.0515 -0.01164,-0.08643 l -0.0085,-0.112537 -0.0071,-0.117475 c -0.0099,-0.0896 -0.05327,-0.143933 -0.129822,-0.161572 -0.0321,-0.0067 -0.07056,-0.01023 -0.111125,-0.01023 h -0.147108 v 0.568325 h -0.213431 v -1.253067 z m -0.140758,0.141111 v 0.402167 h 0.152047 c 0.04551,0 0.08361,-0.0028 0.117828,-0.0078 0.06491,-0.01023 0.110066,-0.03634 0.135114,-0.07867 0.01623,-0.02787 0.02399,-0.07408 0.02399,-0.138994 0,-0.0695 -0.02364,-0.118181 -0.07126,-0.144992 -0.03457,-0.02046 -0.09842,-0.03104 -0.193675,-0.03175 z"
         style="fill:#161f49;fill-opacity:1;fill-rule:nonzero;stroke:none;stroke-width:0.35277778"
         id="path11173"
         inkscape:connector-curvature="0" />
      <path
         d="m -35.670623,-33.149977 -0.0011,-0.05821 c -0.0053,-0.100189 -0.06456,-0.149931 -0.178859,-0.149225 -0.1016,3.52e-4 -0.167569,0.02681 -0.198261,0.07902 -0.01693,0.02505 -0.02611,0.05115 -0.02787,0.0769 l -0.0018,0.103012 v 0.494594 c 7.05e-4,0.08961 0.0095,0.147461 0.02575,0.172861 0.03528,0.05398 0.09595,0.08114 0.182386,0.08114 0.112536,-7.06e-4 0.176741,-0.05398 0.190853,-0.160161 l 0.0088,-0.08079 v -0.04304 h 0.212725 v 0.04374 l -0.0018,0.07832 c -0.0071,0.09349 -0.03845,0.1651 -0.09631,0.215194 -0.03493,0.03069 -0.07655,0.05186 -0.123825,0.06421 -0.05645,0.01552 -0.117475,0.02293 -0.18415,0.02293 -0.05715,0.0011 -0.110772,-0.0042 -0.163336,-0.01482 -0.175331,-0.03281 -0.263173,-0.149578 -0.264231,-0.351367 v -0.49918 c -3.53e-4,-0.05468 0.0025,-0.104775 0.01023,-0.151695 0.0078,-0.05715 0.02681,-0.105128 0.05715,-0.142522 0.06773,-0.08467 0.189441,-0.128058 0.364772,-0.129469 0.24518,0.0014 0.377472,0.07937 0.396169,0.233186 0.0035,0.02963 0.0053,0.06244 0.0053,0.09878 v 0.04868 h -0.212725 z"
         style="fill:#161f49;fill-opacity:1;fill-rule:nonzero;stroke:none;stroke-width:0.35277778"
         id="path11177"
         inkscape:connector-curvature="0" />
      <path
         d="m -35.272306,-33.480494 h 0.696002 v 0.14111 h -0.483301 v 0.39723 h 0.4533 v 0.14111 h -0.4533 v 0.43215 h 0.4967 v 0.14147 h -0.709401 z"
         style="fill:#161f49;fill-opacity:1;fill-rule:nonzero;stroke:none;stroke-width:0.35277778"
         id="path11181"
         inkscape:connector-curvature="0" />
      <path
         d="m -34.011209,-33.075867 c 3.53e-4,-0.103011 0.0095,-0.178153 0.02822,-0.226131 0.02822,-0.07549 0.09102,-0.129822 0.187678,-0.161219 0.06985,-0.02364 0.144992,-0.03528 0.225778,-0.03528 0.07937,0 0.154869,0.01164 0.22613,0.03528 0.09454,0.0314 0.156986,0.08573 0.18662,0.161219 0.01799,0.04692 0.02787,0.12312 0.02928,0.226131 v 0.420158 c 0,0.0755 -0.0042,0.141464 -0.01199,0.196145 -0.02505,0.165453 -0.1651,0.249414 -0.424039,0.250119 -0.187678,0 -0.313267,-0.03845 -0.376414,-0.116416 -0.04868,-0.05821 -0.07232,-0.168628 -0.07126,-0.329848 z m 0.212372,0.418747 c 0.0011,0.105481 0.0088,0.174625 0.02364,0.205317 0.01446,0.03104 0.04163,0.05644 0.08149,0.07479 0.04022,0.01799 0.08184,0.02716 0.124178,0.02716 0.03916,0 0.07585,-0.0071 0.11183,-0.02293 0.06668,-0.02681 0.103717,-0.07479 0.11042,-0.14358 0.0039,-0.03916 0.006,-0.08572 0.0064,-0.140759 v -0.419805 c 0.0014,-0.09102 -0.0088,-0.155223 -0.02999,-0.191911 -0.03387,-0.05927 -0.100542,-0.08925 -0.198614,-0.08855 -0.03845,0 -0.07373,0.0056 -0.107245,0.0187 -0.0695,0.02364 -0.108302,0.07267 -0.116064,0.145697 -0.0049,0.03316 -0.0067,0.07197 -0.006,0.116064 z"
         style="fill:#161f49;fill-opacity:1;fill-rule:nonzero;stroke:none;stroke-width:0.35277778"
         id="path11193"
         inkscape:connector-curvature="0" />
      <path
         d="m -32.255305,-33.480494 v 0.14111 h -0.465298 v 0.39617 h 0.447698 v 0.14076 h -0.447698 v 0.57503 h -0.213101 v -1.25307 z"
         style="fill:#161f49;fill-opacity:1;fill-rule:nonzero;stroke:none;stroke-width:0.35277778"
         id="path11197"
         inkscape:connector-curvature="0" />
      <path
         d="m -31.547515,-32.646819 v 0.06985 c -0.0011,0.03598 0.0028,0.06879 0.0127,0.100189 0.02117,0.08467 0.09066,0.127 0.207081,0.127 0.04374,0 0.08361,-0.006 0.119591,-0.01834 0.07937,-0.02434 0.120297,-0.08467 0.12312,-0.178858 -7.06e-4,-0.06456 -0.02646,-0.115005 -0.07902,-0.150283 -0.03739,-0.02434 -0.08184,-0.04798 -0.132997,-0.07232 l -0.154869,-0.0702 c -0.06103,-0.02716 -0.112184,-0.05503 -0.153811,-0.08396 -0.08431,-0.05962 -0.127353,-0.144638 -0.127353,-0.256116 0.0018,-0.122061 0.04904,-0.208139 0.143933,-0.259292 0.06985,-0.03845 0.166511,-0.05821 0.288925,-0.05927 0.149578,0 0.257528,0.02822 0.324556,0.08502 0.05256,0.04551 0.07832,0.135114 0.07832,0.268464 v 0.02505 h -0.212372 v -0.02999 l -0.0042,-0.06491 c -0.01341,-0.09737 -0.0762,-0.144992 -0.189442,-0.142522 -0.143933,0 -0.215194,0.0575 -0.217311,0.172155 0,0.07303 0.04551,0.132645 0.134761,0.178506 0.05539,0.02928 0.118534,0.05786 0.188384,0.08749 0.0702,0.02893 0.127705,0.0568 0.171802,0.08325 0.101953,0.0628 0.153811,0.156633 0.153811,0.283281 -0.0025,0.228247 -0.153811,0.343252 -0.45473,0.343252 -0.12947,0.0018 -0.228953,-0.02011 -0.298097,-0.06385 -0.08184,-0.05221 -0.125942,-0.125589 -0.132292,-0.222956 l -0.0035,-0.100542 v -0.05009 z"
         style="fill:#161f49;fill-opacity:1;fill-rule:nonzero;stroke:none;stroke-width:0.35277778"
         id="path11209"
         inkscape:connector-curvature="0" />
      <path
         d="m -30.722015,-33.480495 h 0.212372 v 0.836436 l 0.0018,0.11042 c 0.0074,0.121708 0.07902,0.183091 0.212372,0.183797 0.134409,0 0.208139,-0.05715 0.221192,-0.172156 0.0042,-0.04022 0.0067,-0.08079 0.0074,-0.122061 v -0.836436 h 0.213078 v 0.849842 c -7.05e-4,0.0695 -0.0032,0.123119 -0.0081,0.161572 -0.0056,0.05821 -0.02928,0.106892 -0.06985,0.14605 -0.07832,0.07585 -0.197555,0.112889 -0.357011,0.113594 -0.166158,-7.05e-4 -0.286455,-0.03739 -0.359833,-0.111477 -0.04022,-0.04233 -0.06315,-0.09137 -0.06844,-0.148167 -0.0032,-0.03387 -0.0049,-0.08714 -0.0049,-0.161572 z"
         style="fill:#161f49;fill-opacity:1;fill-rule:nonzero;stroke:none;stroke-width:0.35277778"
         id="path11213"
         inkscape:connector-curvature="0" />
      <path
         d="m -29.02511,-33.149977 -0.0011,-0.05821 c -0.0049,-0.100189 -0.06526,-0.149931 -0.179564,-0.149225 -0.101247,3.52e-4 -0.166864,0.02681 -0.197909,0.07902 -0.01658,0.02505 -0.02575,0.05115 -0.02787,0.0769 l -0.0018,0.103012 v 0.494594 c 0.0011,0.08961 0.0095,0.147461 0.02681,0.172861 0.03422,0.05398 0.09525,0.08114 0.181328,0.08114 0.112889,-7.06e-4 0.176742,-0.05398 0.191558,-0.160161 l 0.0085,-0.08079 v -0.04304 h 0.212725 v 0.04374 l -0.0021,0.07832 c -0.006,0.09349 -0.0388,0.1651 -0.09631,0.215194 -0.03528,0.03069 -0.07655,0.05186 -0.123825,0.06421 -0.0568,0.01552 -0.117828,0.02293 -0.183797,0.02293 -0.0575,0.0011 -0.111831,-0.0042 -0.163336,-0.01482 -0.175331,-0.03281 -0.263173,-0.149578 -0.263525,-0.351367 v -0.49918 c -0.0011,-0.05468 0.0021,-0.104775 0.0095,-0.151695 0.0071,-0.05715 0.02575,-0.105128 0.0568,-0.142522 0.06809,-0.08467 0.189442,-0.128058 0.365125,-0.129469 0.245533,0.0014 0.377825,0.07937 0.396169,0.233186 0.0032,0.02963 0.0053,0.06244 0.0053,0.09878 v 0.04868 h -0.212725 z"
         style="fill:#161f49;fill-opacity:1;fill-rule:nonzero;stroke:none;stroke-width:0.35277778"
         id="path11217"
         inkscape:connector-curvature="0" />
      <path
         d="m -27.997812,-33.149977 -0.0011,-0.05821 c -0.0053,-0.100189 -0.06421,-0.149931 -0.179211,-0.149225 -0.1016,3.52e-4 -0.167217,0.02681 -0.198262,0.07902 -0.01693,0.02505 -0.02611,0.05115 -0.02716,0.0769 l -0.0025,0.103012 v 0.494594 c 7.06e-4,0.08961 0.0099,0.147461 0.02611,0.172861 0.03528,0.05398 0.09596,0.08114 0.182033,0.08114 0.113242,-7.06e-4 0.176742,-0.05398 0.191206,-0.160161 l 0.0088,-0.08079 v -0.04304 h 0.212725 v 0.04374 l -0.0018,0.07832 c -0.0071,0.09349 -0.03916,0.1651 -0.09631,0.215194 -0.03493,0.03069 -0.07655,0.05186 -0.124178,0.06421 -0.05574,0.01552 -0.117828,0.02293 -0.18415,0.02293 -0.0568,0.0011 -0.111478,-0.0042 -0.162983,-0.01482 -0.175331,-0.03281 -0.263173,-0.149578 -0.264231,-0.351367 v -0.49918 c -0.0011,-0.05468 0.0028,-0.104775 0.01023,-0.151695 0.0074,-0.05715 0.02575,-0.105128 0.05644,-0.142522 0.06809,-0.08467 0.190147,-0.128058 0.365478,-0.129469 0.245533,0.0014 0.377472,0.07937 0.396169,0.233186 0.0035,0.02963 0.0053,0.06244 0.0053,0.09878 v 0.04868 h -0.212725 z"
         style="fill:#161f49;fill-opacity:1;fill-rule:nonzero;stroke:none;stroke-width:0.35277778"
         id="path11221"
         inkscape:connector-curvature="0" />
      <path
         d="m -27.599704,-33.480494 h 0.695701 v 0.14111 h -0.483003 v 0.39723 h 0.453001 v 0.14111 h -0.453001 v 0.43215 h 0.496703 v 0.14147 h -0.709401 z"
         style="fill:#161f49;fill-opacity:1;fill-rule:nonzero;stroke:none;stroke-width:0.35277778"
         id="path11225"
         inkscape:connector-curvature="0" />
      <path
         d="m -26.57782,-32.646819 v 0.06985 c -7.06e-4,0.03598 0.0035,0.06879 0.01341,0.100189 0.02117,0.08467 0.08996,0.127 0.206727,0.127 0.04374,0 0.08396,-0.006 0.119592,-0.01834 0.07938,-0.02434 0.12065,-0.08467 0.123825,-0.178858 -0.0014,-0.06456 -0.02752,-0.115005 -0.07973,-0.150283 -0.03739,-0.02434 -0.08184,-0.04798 -0.132997,-0.07232 l -0.154517,-0.0702 c -0.06138,-0.02716 -0.112536,-0.05503 -0.153458,-0.08396 -0.08467,-0.05962 -0.127706,-0.144638 -0.127706,-0.256116 0.0014,-0.122061 0.04868,-0.208139 0.143581,-0.259292 0.06985,-0.03845 0.166158,-0.05821 0.289278,-0.05927 0.149578,0 0.257528,0.02822 0.324555,0.08502 0.05221,0.04551 0.07832,0.135114 0.07832,0.268464 v 0.02505 h -0.212725 v -0.02999 l -0.0042,-0.06491 c -0.01305,-0.09737 -0.07655,-0.144992 -0.189442,-0.142522 -0.142875,0 -0.215547,0.0575 -0.216958,0.172155 0,0.07303 0.04516,0.132645 0.134055,0.178506 0.05574,0.02928 0.118886,0.05786 0.189089,0.08749 0.0702,0.02893 0.127,0.0568 0.17145,0.08325 0.101953,0.0628 0.154164,0.156633 0.154164,0.283281 -0.0025,0.228247 -0.153458,0.343252 -0.455083,0.343252 -0.129823,0.0018 -0.2286,-0.02011 -0.297745,-0.06385 -0.0822,-0.05221 -0.126294,-0.125589 -0.132291,-0.222956 l -0.0039,-0.100542 v -0.05009 z"
         style="fill:#161f49;fill-opacity:1;fill-rule:nonzero;stroke:none;stroke-width:0.35277778"
         id="path11237"
         inkscape:connector-curvature="0" />
      <path
         d="m -25.591427,-32.646819 v 0.06985 c -0.0011,0.03598 0.0032,0.06879 0.0127,0.100189 0.02117,0.08467 0.09066,0.127 0.207081,0.127 0.0441,0 0.08361,-0.006 0.118886,-0.01834 0.08008,-0.02434 0.121002,-0.08467 0.124177,-0.178858 -0.0011,-0.06456 -0.02752,-0.115005 -0.07973,-0.150283 -0.03704,-0.02434 -0.08184,-0.04798 -0.132998,-0.07232 l -0.154163,-0.0702 c -0.06138,-0.02716 -0.112537,-0.05503 -0.153459,-0.08396 -0.08537,-0.05962 -0.128058,-0.144638 -0.128058,-0.256116 0.0014,-0.122061 0.04939,-0.208139 0.14358,-0.259292 0.0702,-0.03845 0.166159,-0.05821 0.289631,-0.05927 0.149931,0 0.257175,0.02822 0.32385,0.08502 0.05256,0.04551 0.07937,0.135114 0.07937,0.268464 v 0.02505 h -0.212725 v -0.02999 l -0.0049,-0.06491 c -0.0127,-0.09737 -0.0762,-0.144992 -0.189442,-0.142522 -0.142522,0 -0.215194,0.0575 -0.216605,0.172155 0,0.07303 0.04445,0.132645 0.134761,0.178506 0.05503,0.02928 0.118181,0.05786 0.188031,0.08749 0.07056,0.02893 0.127352,0.0568 0.171097,0.08325 0.102658,0.0628 0.154516,0.156633 0.154516,0.283281 -0.0025,0.228247 -0.153811,0.343252 -0.45473,0.343252 -0.129117,0.0018 -0.228247,-0.02011 -0.297745,-0.06385 -0.08255,-0.05221 -0.126294,-0.125589 -0.132644,-0.222956 l -0.0039,-0.100542 v -0.05009 z"
         style="fill:#161f49;fill-opacity:1;fill-rule:nonzero;stroke:none;stroke-width:0.35277778"
         id="path11241"
         inkscape:connector-curvature="0" />
    </g>
  </g>
</svg>
